<svg width="27" height="27" viewBox="0 0 27 27" fill="none" xmlns="http://www.w3.org/2000/svg">
<path d="M0.0176941 10.2315C0.00792192 8.44713 1.44655 7.00061 3.23095 7.00061C5.01536 7.00061 6.46983 8.44713 6.4796 10.2315L6.55374 23.7697C6.56351 25.5541 5.12489 27.0006 3.34048 27.0006C1.55608 27.0006 0.101609 25.5541 0.0918364 23.7697L0.0176941 10.2315Z" fill="#F8B500"/>
<path d="M10.0166 3.02764C10.0074 1.35586 11.3553 0.000610352 13.0271 0.000610352C14.6989 0.000610352 16.0616 1.35586 16.0707 3.02764L16.1854 23.9736C16.1946 25.6454 14.8467 27.0006 13.1749 27.0006C11.5031 27.0006 10.1404 25.6454 10.1313 23.9736L10.0166 3.02764Z" fill="#D22780"/>
<path d="M20.0165 16.0184C20.0074 14.3517 21.3512 13.0005 23.018 13.0005C24.6848 13.0005 26.0433 14.3517 26.0525 16.0184L26.0961 23.9826C26.1052 25.6493 24.7614 27.0005 23.0946 27.0005C21.4279 27.0005 20.0693 25.6493 20.0601 23.9826L20.0165 16.0184Z" fill="#5E227F"/>
</svg>
